<mxfile host="app.diagrams.net" agent="Mozilla/5.0 (X11; Linux x86_64) AppleWebKit/537.36 (KHTML, like Gecko) Chrome/133.0.0.0 Safari/537.36" version="26.0.14">
  <diagram name="Page-1" id="hkk8yLV24Qf0g4vqRryx">
    <mxGraphModel dx="1368" dy="751" grid="1" gridSize="10" guides="1" tooltips="1" connect="1" arrows="1" fold="1" page="1" pageScale="1" pageWidth="850" pageHeight="1100" math="0" shadow="0">
      <root>
        <mxCell id="0" />
        <mxCell id="1" parent="0" />
        <mxCell id="lO14xRhUFe0yug9pa5VE-3" style="edgeStyle=orthogonalEdgeStyle;rounded=0;orthogonalLoop=1;jettySize=auto;html=1;exitX=1;exitY=0.5;exitDx=0;exitDy=0;" edge="1" parent="1" source="lO14xRhUFe0yug9pa5VE-1" target="lO14xRhUFe0yug9pa5VE-2">
          <mxGeometry relative="1" as="geometry" />
        </mxCell>
        <mxCell id="lO14xRhUFe0yug9pa5VE-1" value="Reset" style="whiteSpace=wrap;html=1;" vertex="1" parent="1">
          <mxGeometry x="120" y="700" width="140" height="60" as="geometry" />
        </mxCell>
        <mxCell id="lO14xRhUFe0yug9pa5VE-5" style="edgeStyle=orthogonalEdgeStyle;rounded=0;orthogonalLoop=1;jettySize=auto;html=1;" edge="1" parent="1" source="lO14xRhUFe0yug9pa5VE-2" target="lO14xRhUFe0yug9pa5VE-4">
          <mxGeometry relative="1" as="geometry" />
        </mxCell>
        <mxCell id="lO14xRhUFe0yug9pa5VE-7" style="edgeStyle=orthogonalEdgeStyle;rounded=0;orthogonalLoop=1;jettySize=auto;html=1;exitX=1;exitY=0.5;exitDx=0;exitDy=0;" edge="1" parent="1" source="lO14xRhUFe0yug9pa5VE-2" target="lO14xRhUFe0yug9pa5VE-6">
          <mxGeometry relative="1" as="geometry" />
        </mxCell>
        <mxCell id="lO14xRhUFe0yug9pa5VE-2" value="Start" style="whiteSpace=wrap;html=1;" vertex="1" parent="1">
          <mxGeometry x="420" y="700" width="120" height="60" as="geometry" />
        </mxCell>
        <mxCell id="lO14xRhUFe0yug9pa5VE-8" style="edgeStyle=orthogonalEdgeStyle;rounded=0;orthogonalLoop=1;jettySize=auto;html=1;exitX=0;exitY=0.5;exitDx=0;exitDy=0;entryX=0.5;entryY=1;entryDx=0;entryDy=0;" edge="1" parent="1" source="lO14xRhUFe0yug9pa5VE-4" target="lO14xRhUFe0yug9pa5VE-1">
          <mxGeometry relative="1" as="geometry" />
        </mxCell>
        <mxCell id="lO14xRhUFe0yug9pa5VE-4" value="Failed" style="whiteSpace=wrap;html=1;" vertex="1" parent="1">
          <mxGeometry x="420" y="880" width="120" height="60" as="geometry" />
        </mxCell>
        <mxCell id="lO14xRhUFe0yug9pa5VE-10" style="edgeStyle=orthogonalEdgeStyle;rounded=0;orthogonalLoop=1;jettySize=auto;html=1;exitX=1;exitY=0.5;exitDx=0;exitDy=0;entryX=0;entryY=0.5;entryDx=0;entryDy=0;" edge="1" parent="1" source="lO14xRhUFe0yug9pa5VE-6" target="lO14xRhUFe0yug9pa5VE-9">
          <mxGeometry relative="1" as="geometry" />
        </mxCell>
        <mxCell id="lO14xRhUFe0yug9pa5VE-6" value="Success, Wait" style="whiteSpace=wrap;html=1;" vertex="1" parent="1">
          <mxGeometry x="650" y="700" width="120" height="60" as="geometry" />
        </mxCell>
        <mxCell id="lO14xRhUFe0yug9pa5VE-12" style="edgeStyle=orthogonalEdgeStyle;rounded=0;orthogonalLoop=1;jettySize=auto;html=1;exitX=0.5;exitY=1;exitDx=0;exitDy=0;entryX=1;entryY=0.5;entryDx=0;entryDy=0;" edge="1" parent="1" source="lO14xRhUFe0yug9pa5VE-9" target="lO14xRhUFe0yug9pa5VE-4">
          <mxGeometry relative="1" as="geometry" />
        </mxCell>
        <mxCell id="lO14xRhUFe0yug9pa5VE-14" style="edgeStyle=orthogonalEdgeStyle;rounded=0;orthogonalLoop=1;jettySize=auto;html=1;exitX=1;exitY=0.5;exitDx=0;exitDy=0;entryX=0;entryY=0.5;entryDx=0;entryDy=0;" edge="1" parent="1" source="lO14xRhUFe0yug9pa5VE-9" target="lO14xRhUFe0yug9pa5VE-13">
          <mxGeometry relative="1" as="geometry" />
        </mxCell>
        <mxCell id="lO14xRhUFe0yug9pa5VE-9" value="Transfer CMD" style="whiteSpace=wrap;html=1;" vertex="1" parent="1">
          <mxGeometry x="840" y="700" width="120" height="60" as="geometry" />
        </mxCell>
        <mxCell id="lO14xRhUFe0yug9pa5VE-16" style="edgeStyle=orthogonalEdgeStyle;rounded=0;orthogonalLoop=1;jettySize=auto;html=1;exitX=0.5;exitY=1;exitDx=0;exitDy=0;entryX=0.5;entryY=0;entryDx=0;entryDy=0;" edge="1" parent="1" source="lO14xRhUFe0yug9pa5VE-13" target="lO14xRhUFe0yug9pa5VE-15">
          <mxGeometry relative="1" as="geometry" />
        </mxCell>
        <mxCell id="lO14xRhUFe0yug9pa5VE-13" value="Read CMD" style="whiteSpace=wrap;html=1;" vertex="1" parent="1">
          <mxGeometry x="1070" y="700" width="120" height="60" as="geometry" />
        </mxCell>
        <mxCell id="lO14xRhUFe0yug9pa5VE-17" style="edgeStyle=orthogonalEdgeStyle;rounded=0;orthogonalLoop=1;jettySize=auto;html=1;exitX=0;exitY=0.5;exitDx=0;exitDy=0;entryX=0.5;entryY=1;entryDx=0;entryDy=0;" edge="1" parent="1" source="lO14xRhUFe0yug9pa5VE-15" target="lO14xRhUFe0yug9pa5VE-4">
          <mxGeometry relative="1" as="geometry" />
        </mxCell>
        <mxCell id="lO14xRhUFe0yug9pa5VE-19" style="edgeStyle=orthogonalEdgeStyle;rounded=0;orthogonalLoop=1;jettySize=auto;html=1;exitX=0.5;exitY=1;exitDx=0;exitDy=0;" edge="1" parent="1" source="lO14xRhUFe0yug9pa5VE-15" target="lO14xRhUFe0yug9pa5VE-18">
          <mxGeometry relative="1" as="geometry" />
        </mxCell>
        <mxCell id="lO14xRhUFe0yug9pa5VE-15" value="Do Op" style="whiteSpace=wrap;html=1;" vertex="1" parent="1">
          <mxGeometry x="1070" y="980" width="120" height="60" as="geometry" />
        </mxCell>
        <mxCell id="lO14xRhUFe0yug9pa5VE-20" style="edgeStyle=orthogonalEdgeStyle;rounded=0;orthogonalLoop=1;jettySize=auto;html=1;exitX=0;exitY=0.5;exitDx=0;exitDy=0;entryX=0.25;entryY=1;entryDx=0;entryDy=0;" edge="1" parent="1" source="lO14xRhUFe0yug9pa5VE-18">
          <mxGeometry relative="1" as="geometry">
            <mxPoint x="910" y="1150" as="sourcePoint" />
            <mxPoint x="710" y="760" as="targetPoint" />
          </mxGeometry>
        </mxCell>
        <mxCell id="lO14xRhUFe0yug9pa5VE-18" value="Send back and ready" style="whiteSpace=wrap;html=1;" vertex="1" parent="1">
          <mxGeometry x="1070" y="1120" width="120" height="60" as="geometry" />
        </mxCell>
      </root>
    </mxGraphModel>
  </diagram>
</mxfile>
